HIERARCHY
ROOT SimulationBone
{
	OFFSET 0.000000 0.000000 0.000000
	CHANNELS 6 Xposition Yposition Zposition Zrotation Yrotation Xrotation 
	JOINT Hips
	{
		OFFSET 0.000000 0.000000 0.000000
		CHANNELS 6 Xposition Yposition Zposition Zrotation Yrotation Xrotation 
		JOINT RightUpLeg
		{
			OFFSET 0.103457 1.857840 10.548497
			CHANNELS 3 Zrotation Yrotation Xrotation
			JOINT RightLeg
			{
				OFFSET 43.499996 -0.000046 -0.000021
				CHANNELS 3 Zrotation Yrotation Xrotation
				JOINT RightFoot
				{
					OFFSET 42.372200 0.000019 0.000010
					CHANNELS 3 Zrotation Yrotation Xrotation
					JOINT RightToe
					{
						OFFSET 17.299992 -0.000004 -0.000006
						CHANNELS 3 Zrotation Yrotation Xrotation
						End Site
						{
							OFFSET 0.000000 0.000000 0.000000
						}
					}
				}
			}
		}
		JOINT LeftUpLeg
		{
			OFFSET 0.103462 1.857830 -10.548500
			CHANNELS 3 Zrotation Yrotation Xrotation
			JOINT LeftLeg
			{
				OFFSET 43.500050 -0.000008 0.000013
				CHANNELS 3 Zrotation Yrotation Xrotation
				JOINT LeftFoot
				{
					OFFSET 42.372265 -0.000008 0.000010
					CHANNELS 3 Zrotation Yrotation Xrotation
					JOINT LeftToe
					{
						OFFSET 17.299980 -0.000009 0.000011
						CHANNELS 3 Zrotation Yrotation Xrotation
						End Site
						{
							OFFSET 0.000000 0.000000 0.000000
						}
					}
				}
			}
		}
		JOINT Spine
		{
			OFFSET 6.901966 -2.603740 0.000004
			CHANNELS 3 Zrotation Yrotation Xrotation
			JOINT Spine1
			{
				OFFSET 12.588106 0.000010 -0.000001
				CHANNELS 3 Zrotation Yrotation Xrotation
				JOINT Spine2
				{
					OFFSET 12.343197 0.000001 -0.000010
					CHANNELS 3 Zrotation Yrotation Xrotation
					JOINT Neck
					{
						OFFSET 25.832893 -0.000006 0.000008
						CHANNELS 3 Zrotation Yrotation Xrotation
						JOINT Head
						{
							OFFSET 11.766615 -0.000006 -0.000000
							CHANNELS 3 Zrotation Yrotation Xrotation
							End Site
							{
								OFFSET 0.000000 0.000000 0.000000
							}
						}
					}
					JOINT RightShoulder
					{
						OFFSET 19.745903 -1.480366 6.000110
						CHANNELS 3 Zrotation Yrotation Xrotation
						JOINT RightArm
						{
							OFFSET 11.284130 -0.000010 -0.000024
							CHANNELS 3 Zrotation Yrotation Xrotation
							JOINT RightForeArm
							{
								OFFSET 33.000046 0.000022 0.000031
								CHANNELS 3 Zrotation Yrotation Xrotation
								JOINT RightHand
								{
									OFFSET 25.200022 0.000011 0.000002
									CHANNELS 3 Zrotation Yrotation Xrotation
									End Site
									{
										OFFSET 0.000000 0.000000 0.000000
									}
								}
							}
						}
					}
					JOINT LeftShoulder
					{
						OFFSET 19.746103 -1.480371 -6.000066
						CHANNELS 3 Zrotation Yrotation Xrotation
						JOINT LeftArm
						{
							OFFSET 11.284146 -0.000005 -0.000007
							CHANNELS 3 Zrotation Yrotation Xrotation
							JOINT LeftForeArm
							{
								OFFSET 33.000076 0.000011 0.000008
								CHANNELS 3 Zrotation Yrotation Xrotation
								JOINT LeftHand
								{
									OFFSET 25.199783 0.000146 0.000422
									CHANNELS 3 Zrotation Yrotation Xrotation
									End Site
									{
										OFFSET 0.000000 0.000000 0.000000
									}
								}
							}
						}
					}
				}
			}
		}
	}
}
MOTION
Frames: 11
Frame Time: 0.016667
-315.992365 0.000000 125.033180 0.000000 183.979790 0.000000 1.233274 89.380362 -2.080552 93.708777 -4.395776 179.082974 167.006062 4.336010 178.355889 -24.426437 0.240704 -2.179960 83.349608 0.714538 -3.973575 21.454560 0.003108 0.000018 169.052410 20.752616 -173.080842 -67.778647 -0.739208 -2.584631 47.553762 12.600710 18.067836 21.454546 -0.003093 -0.000001 6.466755 -0.518272 0.871019 2.912810 -1.057828 1.729042 2.594791 -1.047506 1.735396 15.051944 6.087155 27.896749 -23.236071 -9.593610 34.120800 -162.797221 -75.432347 -19.014928 1.686900 58.833859 23.257094 -34.507848 -12.258160 1.173182 8.006871 -6.162477 -0.112632 -152.573236 82.758224 29.313173 -6.140456 -61.367670 -29.255234 -37.710793 15.015848 -1.400525 7.830913 7.160342 -2.844693 
-315.977731 0.000000 124.591346 0.000000 184.940981 0.000000 1.181079 89.297607 -2.004071 93.668543 -4.350643 179.028795 166.589106 4.029007 178.813915 -24.784229 0.067899 -1.847885 83.385564 0.416133 -4.295161 21.454560 0.003109 0.000018 168.777280 21.222793 -173.356731 -68.505745 -0.779160 -4.645852 49.674571 13.738410 18.089708 21.454553 -0.003091 0.000001 6.458868 -0.515702 0.862160 2.897155 -1.052354 1.711461 2.579140 -1.042138 1.717782 14.830284 6.050955 27.843132 -23.083927 -9.549687 34.021202 -162.755388 -75.423753 -19.057817 1.999974 58.895176 23.633943 -34.107119 -12.057699 1.151290 8.123497 -6.145332 -0.229895 -152.060784 82.676371 29.833579 -7.159031 -60.977461 -28.572977 -38.318450 15.426872 -1.442456 7.535253 7.397771 -2.693047 
-315.960364 0.000000 124.121572 0.000000 185.869601 0.000000 1.098212 89.182299 -1.909799 93.592933 -4.325774 179.003850 166.047135 3.734055 179.155646 -25.259762 -0.011443 -1.464135 83.457867 0.066074 -4.684005 21.454557 0.003109 0.000017 168.595610 21.681170 -173.546433 -69.095902 -0.725029 -6.522828 53.712811 14.142809 17.773732 21.454557 -0.003091 0.000003 6.444923 -0.515213 0.850001 2.869385 -1.050876 1.687288 2.551374 -1.040806 1.693600 14.627445 6.000700 27.754580 -22.994172 -9.529438 33.902975 -162.850310 -75.393906 -18.960909 2.341404 58.928936 24.134482 -33.711582 -11.912549 1.133202 8.324043 -6.059744 -0.403060 -151.622236 82.583360 30.279651 -7.871828 -60.632625 -27.937019 -39.078030 15.819358 -1.487090 7.337868 7.496493 -2.666016 
-315.939733 0.000000 123.618801 0.000000 186.767366 0.000000 1.011975 89.076309 -1.823350 93.486803 -4.268838 179.035798 165.480703 3.414902 179.438031 -25.696864 -0.020526 -1.034961 83.505024 -0.325965 -5.111685 21.454555 0.003109 0.000017 168.472066 22.059296 -173.581786 -69.461110 -0.630213 -7.800862 58.770724 13.696329 16.987181 21.454558 -0.003092 0.000003 6.423042 -0.506156 0.831131 2.825918 -1.031997 1.649971 2.507912 -1.022153 1.656170 14.457407 5.946243 27.646542 -22.956314 -9.523473 33.777504 -163.076626 -75.351210 -18.729576 2.722024 58.955356 24.690653 -33.320913 -11.805781 1.117749 8.507844 -5.834347 -0.405079 -151.332085 82.475345 30.576123 -8.314466 -60.351659 -27.263659 -39.971799 16.135951 -1.531127 7.235868 7.395207 -3.031861 
-315.914780 0.000000 123.080985 0.000000 187.635547 0.000000 0.950610 89.019386 -1.765201 93.356449 -4.133704 179.152625 164.988519 3.041136 179.741484 -25.944694 0.004680 -0.579810 83.467792 -0.742539 -5.553380 21.454557 0.003108 0.000018 168.378417 22.293098 -173.390443 -69.498556 -0.559237 -8.084798 63.698180 12.384695 15.586659 21.454553 -0.003093 0.000001 6.392443 -0.479545 0.802241 2.765326 -0.977675 1.593092 2.447325 -0.968175 1.598963 14.322116 5.909459 27.534774 -22.943894 -9.527157 33.657200 -163.422270 -75.312907 -18.375969 3.146363 58.992089 25.230942 -32.936891 -11.705530 1.103073 8.586405 -5.431842 -0.040298 -151.183794 82.344244 30.729779 -8.541194 -60.146894 -26.543540 -40.953145 16.339207 -1.570579 7.179973 7.116028 -3.943018 
-315.884462 0.000000 122.509665 0.000000 188.471868 0.000000 0.915179 89.000771 -1.730591 93.222096 -3.942806 179.352788 164.572985 2.635802 -179.951019 -26.033274 0.075368 -0.096113 83.366604 -1.190488 -6.028208 21.454560 0.003108 0.000018 168.395937 22.398697 -172.992518 -69.036478 -0.500350 -7.319623 67.604235 10.471483 13.761860 21.454550 -0.003093 -0.000001 6.360147 -0.439898 0.767289 2.701541 -0.897153 1.524368 2.383534 -0.888069 1.529754 14.218353 5.924528 27.417236 -22.954200 -9.579454 33.558320 -163.983702 -75.286514 -17.801236 3.575530 59.013051 25.706044 -32.562598 -11.575809 1.086666 8.616280 -4.935247 0.513495 -150.925457 82.197863 30.995278 -8.585030 -60.022116 -25.924008 -41.935417 16.441662 -1.604013 7.038989 6.973083 -5.050692 
-315.848489 0.000000 121.907275 0.000000 189.270023 0.000000 0.896280 88.998383 -1.706437 93.098496 -3.731885 179.612965 164.207048 2.220089 -179.679578 -26.031263 0.199397 0.416565 83.239850 -1.676159 -6.564316 21.454559 0.003109 0.000018 168.585782 22.388189 -172.479521 -67.937995 -0.465164 -5.633885 70.009607 8.205076 11.824810 21.454550 -0.003093 -0.000001 6.332318 -0.395165 0.732226 2.646728 -0.806552 1.455459 2.328699 -0.797886 1.460299 14.137522 6.006638 27.295671 -22.986035 -9.700127 33.492001 -164.780597 -75.269717 -16.985237 3.966415 58.991269 26.083095 -32.210655 -11.392380 1.067285 8.663038 -4.449585 1.035877 -150.394378 82.054777 31.536867 -8.481038 -59.980744 -25.556617 -42.840502 16.475018 -1.631602 6.703013 7.231413 -5.914548 
-315.806956 0.000000 121.274392 0.000000 190.025525 0.000000 0.875025 88.995377 -1.671199 92.961573 -3.522325 179.836546 163.839190 1.755798 -179.477878 -25.982990 0.320413 0.928120 83.115902 -2.181205 -7.180502 21.454558 0.003110 0.000017 168.822455 22.184803 -172.135124 -66.274574 -0.554622 -3.553684 71.840974 5.824831 9.874083 21.454553 -0.003093 0.000000 6.303860 -0.353574 0.703663 2.590522 -0.722401 1.399441 2.272481 -0.714076 1.403775 14.055289 6.082846 27.205006 -23.020925 -9.788517 33.444877 -165.414504 -75.237357 -16.336172 4.309454 58.937810 26.379743 -31.930150 -11.182249 1.047931 8.698442 -4.046650 1.504590 -149.952783 81.963457 31.986551 -8.292510 -60.033522 -25.453189 -43.664060 16.497470 -1.656319 6.286849 7.684042 -6.218682 
-315.760213 0.000000 120.610099 0.000000 190.740152 0.000000 0.837452 88.977949 -1.609807 92.793115 -3.336838 179.939526 163.433007 1.216169 -179.347535 -25.921338 0.379670 1.401128 83.011160 -2.677706 -7.875711 21.454558 0.003110 0.000017 169.001391 21.743606 -172.229920 -64.134498 -0.829961 -1.642953 74.017507 3.666296 8.017252 21.454554 -0.003093 0.000000 6.270342 -0.324090 0.685862 2.523925 -0.662657 1.364681 2.205901 -0.654541 1.368657 13.959353 6.089833 27.176198 -23.054069 -9.751890 33.405150 -165.510457 -75.185832 -16.238112 4.620420 58.882123 26.640725 -31.772696 -10.990980 1.032299 8.692428 -3.758915 1.934133 -149.966340 81.957778 31.973001 -8.075539 -60.183792 -25.577711 -44.412321 16.561398 -1.682093 5.932255 8.030113 -5.869161 
-315.708560 0.000000 119.914453 0.000000 191.420828 0.000000 0.801327 88.939240 -1.533337 92.637701 -3.214320 179.980601 163.035864 0.679901 -179.173538 -25.853606 0.371527 1.800053 82.903852 -3.125259 -8.577258 21.454560 0.003109 0.000017 169.284750 21.222308 -172.791014 -61.442099 -1.179698 -0.200034 76.087350 2.158945 6.897426 21.454555 -0.003092 0.000000 6.241196 -0.318330 0.673070 2.465755 -0.650528 1.339391 2.147749 -0.642562 1.343296 13.899870 6.090811 27.190321 -23.152229 -9.649725 33.392319 -165.206702 -75.202633 -16.549156 4.979789 58.889841 26.965533 -31.764193 -10.886912 1.025296 8.700783 -3.497643 2.291007 -150.404573 81.976660 31.528791 -7.837430 -60.399976 -25.834843 -45.058354 16.669918 -1.708278 5.609114 8.035012 -5.558286 
-315.651016 0.000000 119.189582 0.000000 192.075932 0.000000 0.790244 88.883202 -1.459981 92.545443 -3.162755 -179.957925 162.708885 0.213977 -178.859973 -25.766289 0.313804 2.113212 82.760578 -3.501451 -9.212215 21.454560 0.003108 0.000017 169.847653 20.754033 -173.771275 -58.118379 -1.488977 0.548330 77.287121 1.552562 6.887982 21.454556 -0.003092 0.000000 6.226962 -0.339481 0.659000 2.437141 -0.692370 1.310906 2.119123 -0.684575 1.315061 13.915751 6.164917 27.215525 -23.361309 -9.565720 33.420701 -164.748138 -75.367967 -17.017911 5.456758 59.013024 27.436663 -31.914513 -10.924727 1.030867 8.769376 -3.181577 2.538947 -151.064791 81.944773 30.861234 -7.591385 -60.644158 -26.125450 -45.579053 16.803212 -1.732450 5.275512 7.572776 -5.952430 
